<?xml version="1.0" standalone="no"?>
<!DOCTYPE svg PUBLIC "-//W3C//DTD SVG 20010904//EN"
 "http://www.w3.org/TR/2001/REC-SVG-20010904/DTD/svg10.dtd">
<svg version="1.0" xmlns="http://www.w3.org/2000/svg"
 width="40.000000pt" height="40.000000pt" viewBox="0 0 40.000000 40.000000"
 preserveAspectRatio="xMidYMid meet">

<g transform="translate(0.000000,40.000000) scale(0.100000,-0.100000)"
fill="#000000" stroke="none">
<path d="M151 339 c-19 -7 -21 -12 -11 -24 6 -8 9 -19 5 -25 -3 -5 -8 -19 -10
-30 -3 -16 1 -20 23 -20 19 0 23 3 14 9 -11 6 -10 9 5 13 10 2 27 2 37 0 15
-3 16 -6 5 -12 -21 -14 -4 -22 24 -11 22 9 24 8 20 -12 -6 -30 -26 -70 -38
-79 -5 -4 -6 -8 -2 -8 18 0 -15 -40 -34 -40 -11 0 -17 -4 -14 -10 3 -5 15 -10
26 -10 10 0 19 -6 19 -14 0 -24 -19 -29 -45 -12 -22 14 -24 14 -39 -9 -16 -24
-16 -24 25 -35 44 -12 87 -6 134 18 l30 15 -33 14 c-18 7 -35 20 -38 27 -6 16
12 57 30 68 18 12 11 166 -8 185 -10 10 -102 11 -125 2z"/>
<path d="M110 240 c0 -11 2 -20 4 -20 2 0 6 9 9 20 3 11 1 20 -4 20 -5 0 -9
-9 -9 -20z"/>
<path d="M226 221 c-4 -7 -5 -15 -2 -18 9 -9 19 4 14 18 -4 11 -6 11 -12 0z"/>
<path d="M150 210 c0 -5 5 -10 10 -10 6 0 10 5 10 10 0 6 -4 10 -10 10 -5 0
-10 -4 -10 -10z"/>
<path d="M197 174 c-8 -8 1 -24 14 -24 5 0 9 7 9 15 0 15 -12 20 -23 9z"/>
<path d="M170 139 c0 -5 11 -9 25 -9 14 0 25 2 25 4 0 2 -11 6 -25 8 -14 3
-25 1 -25 -3z"/>
</g>
</svg>
