<?xml version="1.0" encoding="UTF-8"?>
<svg version="1.1" xmlns="http://www.w3.org/2000/svg" width="32" height="32">
<path d="M0 0 C2.97 0 5.94 0 9 0 C10 2 11 4 12 6 C11.67 6.99 11.34 7.98 11 9 C11.99 9.33 12.98 9.66 14 10 C14.66666667 12.33333333 15.33333333 14.66666667 16 17 C16.99 17.33 17.98 17.66 19 18 C19 20.31 19 22.62 19 25 C18.34 25 17.68 25 17 25 C16.773125 25.639375 16.54625 26.27875 16.3125 26.9375 C15 29 15 29 12.625 29.9375 C10 30 10 30 7.6875 28.6875 C7.130625 28.130625 6.57375 27.57375 6 27 C6 26.34 6 25.68 6 25 C4.35 25 2.7 25 1 25 C0.773125 25.639375 0.54625 26.27875 0.3125 26.9375 C-1 29 -1 29 -3.375 29.9375 C-6 30 -6 30 -8.3125 28.6875 C-8.869375 28.130625 -9.42625 27.57375 -10 27 C-10 26.34 -10 25.68 -10 25 C-10.99 25.33 -11.98 25.66 -13 26 C-13 23.36 -13 20.72 -13 18 C-12.071875 17.62875 -11.14375 17.2575 -10.1875 16.875 C-6.4739697 14.69057041 -5.57312496 12.93281241 -4 9 C-3.34 9 -2.68 9 -2 9 C-2.33 7.68 -2.66 6.36 -3 5 C-2.34 4.67 -1.68 4.34 -1 4 C-0.67 2.68 -0.34 1.36 0 0 Z " fill="#0D0A0C" transform="translate(13,1)"/>
<path d="M0 0 C4.29 0 8.58 0 13 0 C13 0.33 13 0.66 13 1 C11.35 1 9.7 1 8 1 C8 3.31 8 5.62 8 8 C9.29633621 6.93354885 9.29633621 6.93354885 9.0625 4.4375 C9.041875 3.633125 9.02125 2.82875 9 2 C11.97 2.495 11.97 2.495 15 3 C15.33 4.65 15.66 6.3 16 8 C16.99 8.33 17.98 8.66 19 9 C18.01 10.485 18.01 10.485 17 12 C16.67 11.67 16.34 11.34 16 11 C14.33382885 10.95936168 12.66611905 10.957279 11 11 C10.34 12.32 9.68 13.64 9 15 C7.02 15 5.04 15 3 15 C2.773125 15.639375 2.54625 16.27875 2.3125 16.9375 C1 19 1 19 -1.375 19.9375 C-4 20 -4 20 -6.3125 18.75 C-8 17 -8 17 -8 14 C-8.66 14 -9.32 14 -10 14 C-9.6875 12.125 -9.6875 12.125 -9 10 C-5.36804504 7.57869669 -3.61650652 7.78977215 0.6875 7.875 C1.86699219 7.89304687 3.04648438 7.91109375 4.26171875 7.9296875 C5.61716797 7.96449219 5.61716797 7.96449219 7 8 C7 5.69 7 3.38 7 1 C4.69 1 2.38 1 0 1 C0 0.67 0 0.34 0 0 Z " fill="#FDB4A3" transform="translate(11,11)"/>
<path d="M0 0 C0.66 0.33 1.32 0.66 2 1 C1.67 1.99 1.34 2.98 1 4 C1.99 4.33 2.98 4.66 4 5 C4.66666667 7.33333333 5.33333333 9.66666667 6 12 C6.99 12.33 7.98 12.66 9 13 C9 15.31 9 17.62 9 20 C8.34 20 7.68 20 7 20 C6.773125 20.639375 6.54625 21.27875 6.3125 21.9375 C5 24 5 24 2.625 24.9375 C-0.60939697 25.01450945 -1.67097204 24.15650737 -4 22 C-2.125 16.125 -2.125 16.125 -1 15 C0.66611905 14.957279 2.33382885 14.95936168 4 15 C4.66 15 5.32 15 6 15 C5.01 13.35 4.02 11.7 3 10 C2.01 10.495 2.01 10.495 1 11 C0.67 10.01 0.34 9.02 0 8 C-0.99 7.67 -1.98 7.34 -3 7 C-3 8.65 -3 10.3 -3 12 C-1.35 12 0.3 12 2 12 C2 12.33 2 12.66 2 13 C0.02 13 -1.96 13 -4 13 C-4 10.69 -4 8.38 -4 6 C-6.97 5.505 -6.97 5.505 -10 5 C-10 4.67 -10 4.34 -10 4 C-5.545 3.505 -5.545 3.505 -1 3 C-0.67 2.01 -0.34 1.02 0 0 Z " fill="#342C3D" transform="translate(23,6)"/>
<path d="M0 0 C2.97 0 5.94 0 9 0 C9.85856655 3.4342662 9.97591583 5.61682513 9 9 C7.56344146 9.08131463 6.1255517 9.13933559 4.6875 9.1875 C3.48673828 9.23970703 3.48673828 9.23970703 2.26171875 9.29296875 C-0.47851584 8.93801608 -1.29171079 8.10633718 -3 6 C-2 4 -1 2 0 0 Z M-2 9 C0 10 0 10 0 10 Z " fill="#000000" transform="translate(13,1)"/>
<path d="M0 0 C2.625 0.375 2.625 0.375 4.5625 2.625 C5.625 5.375 5.625 5.375 5.125 7.625 C3.625 9.375 3.625 9.375 1.25 10.3125 C-1.98439697 10.38950945 -3.04597204 9.53150737 -5.375 7.375 C-3.18160377 0.50235849 -3.18160377 0.50235849 0 0 Z " fill="#3B303E" transform="translate(8.375,20.625)"/>
<path d="M0 0 C0.66 0.33 1.32 0.66 2 1 C1.67 1.99 1.34 2.98 1 4 C1.99 4.33 2.98 4.66 4 5 C4.66666667 7.33333333 5.33333333 9.66666667 6 12 C6.99 12.33 7.98 12.66 9 13 C9 15.31 9 17.62 9 20 C8.34 19.67 7.68 19.34 7 19 C7.33 18.34 7.66 17.68 8 17 C7.34 17 6.68 17 6 17 C6 16.01 6 15.02 6 14 C5.34 13.67 4.68 13.34 4 13 C3.67 12.01 3.34 11.02 3 10 C2.01 10.495 2.01 10.495 1 11 C0.67 10.01 0.34 9.02 0 8 C-0.99 7.67 -1.98 7.34 -3 7 C-3 8.65 -3 10.3 -3 12 C-1.35 12 0.3 12 2 12 C2 12.33 2 12.66 2 13 C0.02 13 -1.96 13 -4 13 C-4 10.69 -4 8.38 -4 6 C-6.97 5.505 -6.97 5.505 -10 5 C-10 4.67 -10 4.34 -10 4 C-5.545 3.505 -5.545 3.505 -1 3 C-0.67 2.01 -0.34 1.02 0 0 Z " fill="#1C1513" transform="translate(23,6)"/>
<path d="M0 0 C0.90105469 0.01804687 1.80210938 0.03609375 2.73046875 0.0546875 C3.41753906 0.07789062 4.10460938 0.10109375 4.8125 0.125 C4.8125 0.785 4.8125 1.445 4.8125 2.125 C7.7825 2.62 7.7825 2.62 10.8125 3.125 C10.4825 4.445 10.1525 5.765 9.8125 7.125 C7.5025 7.125 5.1925 7.125 2.8125 7.125 C2.1525 5.805 1.4925 4.485 0.8125 3.125 C-1.56124861 2.79074265 -1.56124861 2.79074265 -4.1875 3.125 C-6.03065671 5.0254467 -6.03065671 5.0254467 -7.1875 7.125 C-7.8475 6.795 -8.5075 6.465 -9.1875 6.125 C-8.875 4.25 -8.875 4.25 -8.1875 2.125 C-4.87379 -0.08414 -3.8428979 -0.09981553 0 0 Z " fill="#F5BC8F" transform="translate(10.1875,18.875)"/>
<path d="M0 0 C2.31 0 4.62 0 7 0 C7 1.65 7 3.3 7 5 C4.03 5 1.06 5 -2 5 C-1.34 3.35 -0.68 1.7 0 0 Z " fill="#BCDEE4" transform="translate(10,13)"/>
<path d="M0 0 C2.97 0.495 2.97 0.495 6 1 C6.33 2.65 6.66 4.3 7 6 C7.99 6.33 8.98 6.66 10 7 C9.01 8.485 9.01 8.485 8 10 C6.5 8.625 6.5 8.625 5 7 C5 6.34 5 5.68 5 5 C3.35 5 1.7 5 0 5 C0 3.35 0 1.7 0 0 Z " fill="#E7A98B" transform="translate(20,13)"/>
<path d="M0 0 C-0.33 0.99 -0.66 1.98 -1 3 C-3.31 3 -5.62 3 -8 3 C-8.33 1.68 -8.66 0.36 -9 -1 C-5.22102349 -2.0497157 -3.35080929 -2.10976881 0 0 Z " fill="#D2A674" transform="translate(21,23)"/>
<path d="M0 0 C0.99 1.32 1.98 2.64 3 4 C4.94074861 3.72382467 4.94074861 3.72382467 7 3 C7.66 2.01 8.32 1.02 9 0 C9.33 1.32 9.66 2.64 10 4 C7.67097204 6.15650737 6.60939697 7.01450945 3.375 6.9375 C1 6 1 6 -0.375 4.0625 C-1 2 -1 2 0 0 Z " fill="#020102" transform="translate(20,24)"/>
<path d="M0 0 C0.99 1.32 1.98 2.64 3 4 C4.94074861 3.72382467 4.94074861 3.72382467 7 3 C7.66 2.01 8.32 1.02 9 0 C9.33 1.32 9.66 2.64 10 4 C7.67097204 6.15650737 6.60939697 7.01450945 3.375 6.9375 C1 6 1 6 -0.375 4.0625 C-1 2 -1 2 0 0 Z " fill="#030203" transform="translate(4,24)"/>
<path d="M0 0 C-0.33 1.32 -0.66 2.64 -1 4 C-3.64 4 -6.28 4 -9 4 C-9 3.01 -9 2.02 -9 1 C-2.25 0 -2.25 0 0 0 Z " fill="#4F4358" transform="translate(23,6)"/>
<path d="M0 0 C0.66 0.33 1.32 0.66 2 1 C1.67 1.99 1.34 2.98 1 4 C1.99 4.33 2.98 4.66 4 5 C4 5.66 4 6.32 4 7 C3.01 6.67 2.02 6.34 1 6 C-0.89212737 5.77820215 -2.78884472 5.59385985 -4.6875 5.4375 C-5.68136719 5.35371094 -6.67523437 5.26992187 -7.69921875 5.18359375 C-8.83810547 5.09271484 -8.83810547 5.09271484 -10 5 C-10 4.67 -10 4.34 -10 4 C-5.545 3.505 -5.545 3.505 -1 3 C-0.67 2.01 -0.34 1.02 0 0 Z " fill="#010101" transform="translate(23,6)"/>
<path d="M0 0 C3.60591321 -0.47446226 5.89782379 0.16167336 9 2 C8.67 2.99 8.34 3.98 8 5 C7.67 4.34 7.34 3.68 7 3 C4.03 3 1.06 3 -2 3 C-1.34 2.01 -0.68 1.02 0 0 Z " fill="#5B4B3D" transform="translate(22,21)"/>
<path d="M0 0 C-0.75 4.75 -0.75 4.75 -3 7 C-2.34 7.33 -1.68 7.66 -1 8 C-1.99 8.33 -2.98 8.66 -4 9 C-4 6.36 -4 3.72 -4 1 C-2 0 -2 0 0 0 Z " fill="#010100" transform="translate(4,18)"/>
<path d="M0 0 C1.32 0.33 2.64 0.66 4 1 C4 2.32 4 3.64 4 5 C2.68 5 1.36 5 0 5 C0 3.35 0 1.7 0 0 Z " fill="#B7DDE3" transform="translate(20,13)"/>
<path d="M0 0 C2.31 0 4.62 0 7 0 C7 0.99 7 1.98 7 3 C4.69 3 2.38 3 0 3 C0 2.01 0 1.02 0 0 Z " fill="#CAEEF3" transform="translate(14,3)"/>
</svg>
