<svg width="32" height="32" viewBox="0 0 32 32" fill="none" xmlns="http://www.w3.org/2000/svg">
<path opacity="0.4" d="M21.4341 3.16666H25.9487C27.5382 3.16671 28.8334 4.46655 28.8335 6.07974V10.6325C28.8335 12.2458 27.5383 13.5455 25.9487 13.5456H21.4341C19.8445 13.5456 18.5493 12.2458 18.5493 10.6325V6.07974L18.564 5.78091C18.7123 4.30896 19.944 3.16666 21.4341 3.16666Z" fill="#009B8D" stroke="#111111"/>
<path d="M6.05143 18.4538H10.5661C12.1555 18.4538 13.4506 19.7538 13.4508 21.3669V25.9196C13.4508 27.5317 12.1555 28.8336 10.5661 28.8336H6.05143C4.46196 28.8336 3.16666 27.5317 3.16666 25.9196V21.3669C3.1669 19.7537 4.46198 18.4538 6.05143 18.4538ZM21.4342 18.4538H25.9489C27.5382 18.4539 28.8334 19.7538 28.8337 21.3669V25.9196C28.8337 27.5317 27.5382 28.8335 25.9489 28.8336H21.4342C19.8448 28.8336 18.5495 27.5317 18.5495 25.9196V21.3669C18.5497 19.7537 19.8448 18.4538 21.4342 18.4538ZM6.05143 3.16666H10.5661C12.1556 3.16671 13.4507 4.46655 13.4508 6.07974V10.6325C13.4508 12.2458 12.1556 13.5455 10.5661 13.5456H6.05143C4.46184 13.5456 3.16666 12.2458 3.16666 10.6325V6.07974C3.16677 4.46652 4.4619 3.16666 6.05143 3.16666Z" fill="#009B8D" stroke="#111111"/>
</svg>
