<?xml version="1.0" standalone="no"?>
<!DOCTYPE svg PUBLIC "-//W3C//DTD SVG 20010904//EN"
 "http://www.w3.org/TR/2001/REC-SVG-20010904/DTD/svg10.dtd">
<svg version="1.0" xmlns="http://www.w3.org/2000/svg"
 width="32.000000pt" height="32.000000pt" viewBox="0 0 32.000000 32.000000"
 preserveAspectRatio="xMidYMid meet">

<g transform="translate(0.000000,32.000000) scale(0.100000,-0.100000)"
fill="#000000" stroke="none">
<path d="M70 297 c0 -26 -49 -59 -51 -34 0 6 -5 2 -11 -10 -8 -17 -7 -25 6
-38 14 -15 16 -15 16 -1 0 9 8 16 20 16 21 0 27 -15 10 -25 -22 -14 -9 -30 25
-30 34 0 47 16 25 30 -24 15 -9 27 25 21 25 -5 35 -3 35 6 0 17 -20 47 -20 31
0 -10 -6 -10 -25 -1 -16 7 -25 19 -25 35 0 14 -6 23 -15 23 -9 0 -15 -9 -15
-23z m56 -46 c43 -16 40 -24 -4 -12 -29 9 -32 8 -32 -14 0 -13 6 -25 13 -28 6
-2 -1 -4 -18 -4 -16 0 -24 2 -17 4 6 3 12 15 12 28 0 22 -3 23 -32 14 -44 -12
-47 -4 -4 12 28 10 36 19 37 39 l2 25 4 -26 c3 -18 14 -29 39 -38z"/>
<path d="M126 291 c-3 -5 16 -7 42 -5 26 2 41 1 35 -2 -14 -6 -18 -44 -5 -44
4 0 16 -20 27 -44 16 -37 26 -46 53 -51 17 -3 32 -11 32 -18 0 -21 -38 -75
-65 -93 -22 -15 -29 -15 -51 -3 -20 10 -29 11 -44 1 -24 -15 -40 -15 -40 -2 0
6 7 10 15 10 8 0 15 6 15 13 -1 24 -27 45 -65 53 -22 4 -44 12 -48 18 -5 6 -5
0 -1 -14 36 -132 220 -147 279 -24 34 72 2 164 -69 198 -37 17 -101 22 -110 7z
m141 -43 c44 -48 54 -88 23 -88 -24 0 -60 37 -60 62 0 10 -7 21 -15 24 -23 9
-18 24 8 24 13 0 33 -10 44 -22z m-180 -160 c35 -13 43 -32 17 -42 -18 -7 -40
7 -55 36 -11 21 -7 22 38 6z m106 -75 c-7 -2 -21 -2 -30 0 -10 3 -4 5 12 5 17
0 24 -2 18 -5z"/>
<path d="M11 174 c0 -11 3 -14 6 -6 3 7 2 16 -1 19 -3 4 -6 -2 -5 -13z"/>
<path d="M244 119 c-9 -15 12 -33 30 -26 9 4 16 13 16 22 0 17 -35 21 -46 4z
m36 -9 c0 -5 -4 -10 -9 -10 -6 0 -13 5 -16 10 -3 6 1 10 9 10 9 0 16 -4 16
-10z"/>
<path d="M162 107 c-18 -21 13 -57 48 -57 37 0 42 17 13 47 -27 26 -45 29 -61
10z m55 -22 c8 -9 13 -19 10 -22 -10 -10 -55 6 -61 22 -7 20 30 20 51 0z"/>
</g>
</svg>
