<?xml version="1.0" encoding="UTF-8"?>
<svg version="1.1" xmlns="http://www.w3.org/2000/svg" width="32" height="32">
<path d="M0 0 C4.95 0 9.9 0 15 0 C15 0.99 15 1.98 15 3 C17.64 3.66 20.28 4.32 23 5 C23 13.91 23 22.82 23 32 C15.41 32 7.82 32 0 32 C0.33 30.68 0.66 29.36 1 28 C0.01 28 -0.98 28 -2 28 C-2.33 27.34 -2.66 26.68 -3 26 C-3 27.98 -3 29.96 -3 32 C-3.99 31.67 -4.98 31.34 -6 31 C-5.67 29.02 -5.34 27.04 -5 25 C-5.66 25 -6.32 25 -7 25 C-7 25.99 -7 26.98 -7 28 C-7.66 28 -8.32 28 -9 28 C-9 26.02 -9 24.04 -9 22 C-6.1875 21.375 -6.1875 21.375 -3 21 C-2.01 21.66 -1.02 22.32 0 23 C0 15.41 0 7.82 0 0 Z " fill="#000000" transform="translate(9,0)"/>
<path d="M0 0 C0.33 0.99 0.66 1.98 1 3 C1.99 3 2.98 3 4 3 C4.33 2.01 4.66 1.02 5 0 C5 0.99 5 1.98 5 3 C7.31 3 9.62 3 12 3 C12.33 2.01 12.66 1.02 13 0 C13 8.25 13 16.5 13 25 C8.75176275 25.84964745 5.28994923 26.16499805 1 26 C0 25 0 25 -0.11352539 22.59155273 C-0.10828857 21.54942627 -0.10305176 20.5072998 -0.09765625 19.43359375 C-0.09443359 18.30888672 -0.09121094 17.18417969 -0.08789062 16.02539062 C-0.07951172 14.84138672 -0.07113281 13.65738281 -0.0625 12.4375 C-0.05798828 11.24962891 -0.05347656 10.06175781 -0.04882812 8.83789062 C-0.03699675 5.89187774 -0.02051287 2.94596319 0 0 Z " fill="#CCCCCC" transform="translate(17,6)"/>
<path d="M0 0 C3.63 0 7.26 0 11 0 C11.33 0.99 11.66 1.98 12 3 C10.02 3.33 8.04 3.66 6 4 C5.67 12.58 5.34 21.16 5 30 C3.35 30 1.7 30 0 30 C0 20.1 0 10.2 0 0 Z " fill="#6F878A" transform="translate(11,1)"/>
<path d="M0 0 C0.33 0 0.66 0 1 0 C1 8.25 1 16.5 1 25 C0.01 25 -0.98 25 -2 25 C-2 23.35 -2 21.7 -2 20 C-3.65 20 -5.3 20 -7 20 C-6.01 19.67 -5.02 19.34 -4 19 C-4 14.05 -4 9.1 -4 4 C-2.68 3.67 -1.36 3.34 0 3 C0 2.01 0 1.02 0 0 Z " fill="#FCFCFC" transform="translate(29,6)"/>
<path d="M0 0 C0 8.91 0 17.82 0 27 C-2.31 27 -4.62 27 -7 27 C-6.67 25.02 -6.34 23.04 -6 21 C-5.67 21 -5.34 21 -5 21 C-5 22.65 -5 24.3 -5 26 C-4.01 26 -3.02 26 -2 26 C-2.33 18.74 -2.66 11.48 -3 4 C-4.32 4.33 -5.64 4.66 -7 5 C-9.34114367 4.72686657 -11.67750658 4.40197001 -14 4 C-14.33 2.35 -14.66 0.7 -15 -1 C-9.00828179 -2.536338 -6.8110697 -1.51357104 0 0 Z " fill="#303030" transform="translate(32,5)"/>
<path d="M0 0 C0.33 0.99 0.66 1.98 1 3 C1.99 3 2.98 3 4 3 C4.33 2.01 4.66 1.02 5 0 C5 4.95 5 9.9 5 15 C3.35 15 1.7 15 0 15 C0 10.05 0 5.1 0 0 Z " fill="#BED3D5" transform="translate(11,16)"/>
<path d="M0 0 C3.63 0 7.26 0 11 0 C11.33 0.99 11.66 1.98 12 3 C11.05125 3.103125 10.1025 3.20625 9.125 3.3125 C5.70892499 3.68539295 5.70892499 3.68539295 4 7 C3.01 6.67 2.02 6.34 1 6 C0.67 4.02 0.34 2.04 0 0 Z " fill="#84B0B8" transform="translate(11,1)"/>
<path d="M0 0 C1.98 0 3.96 0 6 0 C6.042721 1.66611905 6.04063832 3.33382885 6 5 C5 6 5 6 1.4375 6.0625 C0.303125 6.041875 -0.83125 6.02125 -2 6 C-1.34 5.67 -0.68 5.34 0 5 C0 3.35 0 1.7 0 0 Z " fill="#425E62" transform="translate(20,26)"/>
<path d="M0 0 C0.99 0 1.98 0 3 0 C3 3.63 3 7.26 3 11 C2.01 11 1.02 11 0 11 C0 7.37 0 3.74 0 0 Z " fill="#384344" transform="translate(26,10)"/>
<path d="M0 0 C0.99 0 1.98 0 3 0 C3 3.63 3 7.26 3 11 C2.01 11 1.02 11 0 11 C0 7.37 0 3.74 0 0 Z " fill="#384344" transform="translate(22,10)"/>
<path d="M0 0 C0.99 0 1.98 0 3 0 C3 3.63 3 7.26 3 11 C2.01 11 1.02 11 0 11 C0 7.37 0 3.74 0 0 Z " fill="#384344" transform="translate(18,10)"/>
<path d="M0 0 C0.99 0 1.98 0 3 0 C3.33 2.97 3.66 5.94 4 9 C3.01 9 2.02 9 1 9 C0.67 6.03 0.34 3.06 0 0 Z " fill="#ABACAC" transform="translate(26,22)"/>
<path d="M0 0 C0.33 0.99 0.66 1.98 1 3 C1.99 3 2.98 3 4 3 C4 4.32 4 5.64 4 7 C2.68 7.33 1.36 7.66 0 8 C0 5.36 0 2.72 0 0 Z " fill="#6E8E93" transform="translate(11,4)"/>
<path d="" fill="#000000" transform="translate(0,0)"/>
<path d="" fill="#000000" transform="translate(0,0)"/>
<path d="" fill="#000000" transform="translate(0,0)"/>
<path d="" fill="#000000" transform="translate(0,0)"/>
<path d="" fill="#000000" transform="translate(0,0)"/>
</svg>
